<?xml version="1.0" encoding="UTF-8"?>
<svg id="Layer_1" data-name="Layer 1" xmlns="http://www.w3.org/2000/svg" viewBox="0 0 1200 400">
  <g>
    <path d="M600.02,32.4c-39.87,0-72.31,32.44-72.31,72.31s32.44,72.31,72.31,72.31,72.31-32.44,72.31-72.31-32.44-72.31-72.31-72.31Zm-.7,113.17c-20.83-.66-39.53-17.8-39.38-41.21,.14-21.95,18.58-40.07,40.78-39.99,22.52,.08,40.77,18.37,40.54,40.94-.25,23.72-20.08,40.95-41.94,40.26Z"/>
    <path d="M508.14,13.66c-1.58,0-2.01,.41-2,1.99,.04,121.08,.03,244.14,0,365.22h30.85c.59,0,1.03,0,1.36-.04h21.75v-110.76c0-22.46,18.2-40.66,40.66-40.66s40.66,18.2,40.66,40.66v110.76h25.57v-.11h26.93V13.69h-1.96c-61.27,0-122.54,0-183.81-.03Zm91.89,175.22c-46.41,0-84.16-37.76-84.16-84.16s37.76-84.16,84.16-84.16,84.16,37.76,84.16,84.16-37.76,84.16-84.16,84.16Z"/>
  </g>
  <path d="M256.23,227.33c-43.78,0-79.27,35.49-79.27,79.27s35.49,79.27,79.27,79.27,79.27-35.49,79.27-79.27-35.49-79.27-79.27-79.27Zm0,128.71c-27.3,0-49.43-22.13-49.43-49.43s22.13-49.43,49.43-49.43,49.43,22.13,49.43,49.43-22.13,49.43-49.43,49.43Z"/>
  <path d="M934.24,227.33c-43.78,0-79.27,35.49-79.27,79.27s35.49,79.27,79.27,79.27,79.27-35.49,79.27-79.27-35.49-79.27-79.27-79.27Zm0,128.71c-27.3,0-49.43-22.13-49.43-49.43s22.13-49.43,49.43-49.43,49.43,22.13,49.43,49.43-22.13,49.43-49.43,49.43Z"/>
  <path d="M60.73,289.8h62.79v-57.45h28.95v148.52h-28.95v-66.13H60.73v66.13H31.78V232.34h28.95v57.45Z"/>
  <path d="M402.96,232.34c20.49,0,30.95,5.35,37.85,11.14,11.36,9.57,14.7,22.27,14.7,33.4,0,14.47-5.79,27.17-17.37,34.96-3.79,2.67-9.13,5.12-16.26,6.46l46.32,62.57h-36.07l-39.64-59.68h-3.56v59.68h-28.95V232.34h42.98Zm-14.03,68.36h8.24c5.57,0,28.5-.67,28.5-22.49s-22.71-22.27-28.06-22.27h-8.68v44.76Z"/>
  <path d="M775.89,355.88h68.69v24.98h-116.87l72.26-123.78h-60.89v-24.98h109.06l-72.26,123.78Z"/>
  <path d="M1030.91,380.85V232.08h20.07l90.55,99.25v-99.25h28.99v148.76h-20.07l-90.55-99.47v99.47h-28.99Z"/>
  <path d="M115.43,27.75H41.32V92.73H113.81v10.74H41.32v81.89H115.43v10.74H29.51V17.01H115.43v10.74Z"/>
  <path d="M297.45,53.53c-15.3-17.99-37.32-28.19-60.41-28.19-45.91,0-80.28,36.78-80.28,82.16,0,53.16,44.3,80.82,80.55,80.82,17.99,0,41.88-7.25,60.14-27.12v15.57c-18.26,16.11-40.27,22.28-59.6,22.28-53.7,0-93.44-42.15-93.44-92.09S185.76,14.6,237.31,14.6c34.1,0,54.77,18.26,60.14,23.36v15.57Z"/>
  <path d="M347.92,93h108.47V17.01h11.81V196.1h-11.81V103.74h-108.47v92.36h-11.81V17.01h11.81V93Z"/>
  <path d="M745.67,17.01V196.1h-11.81V17.01h11.81Z"/>
  <path d="M791.44,196.1V15.13l150.35,157.34V17.01h11.81V200.66L803.26,43.33V196.1h-11.81Z"/>
  <path d="M1095.36,110.18h75.18c0,16.38-3.49,40.01-18.26,58.8-15.84,20.14-40.01,30.07-67.39,30.07-52.62,0-92.63-38.66-92.63-92.09s41.35-92.36,93.44-92.36c25.24,0,42.15,8.59,56.11,19.33,7.52,5.91,14.23,12.35,21.48,22.55l-9.4,7.52c-5.1-8.59-12.35-15.84-17.18-19.87-11.28-9.4-29-18.8-51.28-18.8-45.91,0-80.82,36.52-80.82,82.16s33.83,80.82,80.01,80.82c30.61,0,52.62-15.57,62.29-30.34,6.98-10.74,11.28-25.51,11.81-37.05h-63.36v-10.74Z"/>
</svg>