<?xml version="1.0" encoding="UTF-8"?>
<svg id="Layer_1" data-name="Layer 1" xmlns="http://www.w3.org/2000/svg" viewBox="0 0 250 250">
  <defs>
    <style>
      .cls-1 {
        fill: none;
        stroke: #fff;
        stroke-miterlimit: 10;
        stroke-width: 3.68px;
      }

      .cls-2 {
        fill: #fff;
      }

      .cls-3 {
        fill: #a00800;
      }
    </style>
  </defs>
  <rect class="cls-1" x="14.26" y="14.26" width="221.47" height="221.47" rx="8" ry="8"/>
  <g>
    <g>
      <path class="cls-3" d="M44.86,49.37c.17-.25,3.16-.38,8.97-.38h8.59l.38,3.28c1.6,14.57,2.53,21.85,2.78,21.85.08,0,.29-1.3.63-3.92,1.68-12.04,2.53-19.03,2.53-20.97,0-.17,3.07-.21,9.22-.13l9.09.13.13,39.03c.08,25.94-.17,39.16-.76,39.66-.5.34-.76.55-.76.63l.76-.13c.59-.33.88-.13.88.63,0,.59-.27.93-.82,1.01-.55.08-2.13.13-4.74.13h-5.56v-28.17c.08-18.78,0-27.87-.25-27.28-.51,1.35-1.98,12.34-4.42,32.97-.84,6.99-1.52,10.74-2.02,11.24-.76.93-.97,1.43-.63,1.52.08.08.25.04.51-.13.25-.17.4-.04.44.38.04.42-.02,1.26-.19,2.53-.42,3.54-.76,5.58-1.01,6.13-.25.55-.97.82-2.15.82s-1.92-.21-2.21-.63c-.3-.42-.57-1.85-.82-4.29-.17-1.6-.08-2.48.25-2.65.34-.25.21-.63-.38-1.14-.51-.59-.76-1.68-.76-3.28s.25-2.65.76-3.16c.34-.42.42-.59.25-.5-.08,0-.21.02-.38.06-.17.04-.32-.06-.44-.32-.13-.25-.27-.71-.44-1.39-.17-.67-.32-1.58-.44-2.72-.13-1.14-.32-2.63-.57-4.48-.67-6.15-1.5-12.86-2.46-20.15-.97-7.28-1.54-10.97-1.71-11.05-.08-.08-.13,1.1-.13,3.54s-.02,5.83-.06,10.17c-.04,4.34-.06,8.99-.06,13.96v28.04h-12.38l-.13-2.4c-.08-10.36-.04-24.65.13-42.88.17-18.23.38-27.39.63-27.47.42-.25.42-.51,0-.76-.34-.17-.53-1.3-.57-3.41-.04-2.1.06-3.41.32-3.92Z"/>
      <path class="cls-2" d="M93.49,50.13c.84-.42,4.17-.61,9.98-.57,5.81.04,9.14.27,9.98.69.76.5,1.14.63,1.14.38s.63.3,1.89,1.64c1.35,1.35,2.27,1.94,2.78,1.77.59-.25,1.2,0,1.83.76.63.76,1.33,2.06,2.08,3.92.51,1.43.84,2.86,1.01,4.29.17,1.43.25,4.17.25,8.21.08,5.22-.13,8.67-.63,10.36-.51,1.69-1.77,3.49-3.79,5.43-1.35,1.26-2.02,2.02-2.02,2.27s.46.63,1.39,1.14c1.09.59,2.17,1.73,3.22,3.41,1.05,1.68,1.75,3.33,2.08,4.93.42,2.02.63,5.18.63,9.47s-.17,6.23-.51,6.32l-.76-.13-1.26-.38,1.26,1.01c.51.42.84,1.03,1.01,1.83.17.8.34,2.25.5,4.36.17,2.86.38,5.26.63,7.2l.5,2.15-6.44-.25-6.44-.13-.51-2.02c-.25-1.35-.5-6.02-.76-14.02-.08-7.75-.25-12.59-.5-14.53-.42-3.11-2.02-4.67-4.8-4.67h-2.53l.25,17.81.13,17.81-6.32-.25-6.44-.13v-39.79c0-19.87.04-31.47.13-34.8.08-3.33.42-5.16,1.01-5.49ZM110.03,60.36c-.76-.59-1.9-.88-3.41-.88h-2.15l.25,9.98c0,1.18.02,2.53.06,4.04.04,1.52.08,2.78.13,3.79.04,1.01.06,1.96.06,2.84v1.83l.13,2.4,2.15-.38c1.35-.25,2.48-.84,3.41-1.77.51-.42.84-.88,1.01-1.39.17-.51.29-1.2.38-2.08.08-.88.21-2.46.38-4.74.25-7.49-.55-12.04-2.4-13.64ZM116.85,52.03c0,.34.29.63.88.88.76.25,1.18.34,1.26.25s-.04-.34-.38-.76c-.84-1.01-1.39-1.22-1.64-.63-.08.08-.13.17-.13.25ZM119.63,111.52c-.08-.59-.38-1.01-.88-1.26-.25-.08-.44-.04-.57.13-.13.17-.15.42-.06.76.08.59.38,1.01.88,1.26.25.08.44.04.57-.13.13-.17.15-.42.06-.76ZM121.78,59.1c-.25.67-.55.88-.88.63-.34-.25-.59-.13-.76.38-.17.25-.25.34-.25.25l-.13-.5c-.08-.67.17-1.01.76-1.01s.88-.21.88-.63c0-.51.13-.59.38-.25.25.17.25.55,0,1.14Z"/>
      <path class="cls-2" d="M131.06,49.18c.46-.29.9-.23,1.33.19.51.42,1.05.38,1.64-.13.51-.42,1.09-.46,1.77-.13.67.42,1.47.46,2.4.13,1.01-.42,5.35-.55,13.01-.38l11.62.13.13,5.81.13,5.81-4.42-.13c-3.03-.17-4.67-.13-4.93.13-.17.25-.3,11.92-.38,34.99l-.13,34.61-6.32.13h-6.44v-34.61c.08-23.16.04-34.82-.13-34.99-.08-.08-1.73-.21-4.93-.38l-4.8-.13-.13-5.31c-.08-3.54.1-5.45.57-5.75Z"/>
      <path class="cls-2" d="M168.26,49.12c.17-.25,2.95-.38,8.34-.38,3.62,0,5.92.06,6.88.19.97.13,1.58.4,1.83.82.34.84,1.39,4.93,3.16,12.25,2.02,8.51,3.45,14.4,4.29,17.68l1.52,6.57.13-5.05v-4.23c0-1.98.02-4.38.06-7.2.04-2.82.06-5.24.06-7.26l.13-13.51,4.55-.13c3.03-.08,4.8.04,5.3.38.59.42.8,23.24.63,68.46v12.88l-7.2-.25-7.2-.13-.38-2.02c-2.27-10.19-5.14-22.19-8.59-36l-2.53-9.98v24.12l-.13,24-1.26.25c-.93.17-2.74.25-5.43.25h-4.29l-.13-40.67c0-27.11.08-40.8.25-41.05Z"/>
    </g>
    <g>
      <path class="cls-2" d="M51.05,140.13c1.28-.64,2.86-.93,4.72-.87,2.18.07,3.84.32,4.96.77,1.12.45,2.27,1.29,3.42,2.51.9,1.03,1.61,2.11,2.12,3.23.51,1.12.88,2.47,1.11,4.05.22,1.58.34,3.55.34,5.93v4.72h-7.91l-.48-5.3c-.39-4.76-1.09-7.33-2.12-7.71-.45-.19-.96-.16-1.54.1-.58.26-1.06.67-1.45,1.25-.32.52-.52,1.75-.58,3.71-.06,1.96-.1,6.96-.1,14.99.06,9.32.19,15.54.39,18.66.19,3.12.61,5,1.25,5.64.32.32.67.55,1.06.67.39.13.79.13,1.21,0,.42-.13.79-.39,1.11-.77.19-.19.34-.42.43-.67.1-.26.19-.63.29-1.11.1-.48.16-1.09.19-1.83.03-.74.08-1.72.14-2.94l.19-5.59,3.95-.1c2.51-.13,3.82-.03,3.95.29.06.13.1.29.1.48,0,.45.06,1.74.19,3.86.13,2.64-.06,5.05-.58,7.23-.52,2.19-1.3,4.05-2.36,5.59-1.06,1.54-2.4,2.67-4,3.37-1.86.9-3.97,1.14-6.31.72-2.35-.42-4.29-1.37-5.83-2.84-1.29-1.28-2.6-3.5-3.95-6.65-.52-1.29-.84-8.34-.96-21.16-.13-12.82.06-20.16.58-22.03.19-.77.39-1.29.58-1.54.19-.26.42-.32.67-.19.26.06.39.08.39.05,0-.03-.1-.18-.29-.43-.32-.45.13-1.41,1.35-2.89,1.22-1.48,2.47-2.54,3.76-3.18ZM53.36,144.08c0,.19-.06.32-.19.39-.26-.19-.39-.45-.39-.77,0-.58.16-.58.48,0l.1.39ZM57.41,197.11c.32-.39.32-.67,0-.87-.32-.19-.39-.16-.19.1.19.32.1.55-.29.67-.32.13-.42.29-.29.48.19.26.45.13.77-.39ZM58.13,140.33c.42,0,.63.14.63.43s-.23.37-.67.24c-.39-.26-.58-.42-.58-.48,0-.13.21-.19.63-.19ZM61.36,141.77c0,.06-.05.1-.14.1h-.34c-.13,0-.26-.03-.39-.1-.58-.13-.87-.35-.87-.67,0-.26.29-.22.87.1.58.32.87.51.87.58ZM62.42,194.22c.13-.13-.03-.39-.48-.77-.39-.39-.58-.42-.58-.1,0,.26.14.5.43.72.29.23.5.27.63.14Z"/>
      <path class="cls-2" d="M80.93,138.88c1.22-.19,2.02-.26,2.41-.19.06,0,.22.03.48.1.26.06.55.13.87.19.32.06.61.1.87.1,1.03.19,1.7.55,2.02,1.06.32.51.58.55.77.1.13-.32.71-.1,1.74.67.71.52,1.28.98,1.73,1.4.45.42.87.9,1.25,1.45.39.55.77,1.27,1.16,2.17.96,1.74,1.54,4.11,1.74,7.13.19,3.02.22,9.29.1,18.8-.06,8.16-.16,13.29-.29,15.38-.13,2.09-.39,3.81-.77,5.16-.64,1.87-1.61,3.54-2.89,5.01-1.41,1.61-2.62,2.62-3.62,3.04-1,.42-2.59.63-4.77.63-2.06,0-3.49-.14-4.29-.43-.8-.29-1.91-1.11-3.33-2.46-2.25-2.06-3.73-4.72-4.44-8-.26-1.48-.39-7.81-.39-18.99s.13-17.93.39-20.25c.51-3.41,1.56-6.17,3.13-8.29,1.57-2.12,3.62-3.37,6.12-3.76ZM85.56,149.29c-.58-1.29-1.38-1.85-2.41-1.69-1.03.16-1.77.95-2.22,2.36-.19.58-.29,7.17-.29,19.76,0,9.96.1,16.02.29,18.17s.74,3.62,1.64,4.39c.39.26.77.39,1.16.39s.77-.13,1.16-.39c.39-.26.67-.61.87-1.06.39-.71.58-7.62.58-20.73v-10.85c0-2.22-.03-4.18-.1-5.88-.06-1.7-.14-2.78-.24-3.23-.1-.45-.24-.87-.43-1.25Z"/>
      <path class="cls-2" d="M100.5,138.98c.13-.19,2.41-.29,6.84-.29h6.56l.29,2.51c1.22,11.12,1.93,16.68,2.12,16.68.06,0,.22-1,.48-2.99,1.29-9.19,1.93-14.52,1.93-16,0-.13,2.35-.16,7.04-.1l6.94.1.1,29.79c.06,19.8-.13,29.89-.58,30.27-.39.26-.58.42-.58.48l.58-.1c.45-.26.67-.1.67.48,0,.45-.21.71-.63.77-.42.07-1.62.1-3.62.1h-4.24v-21.5c.06-14.33,0-21.27-.19-20.82-.39,1.03-1.51,9.42-3.37,25.16-.64,5.33-1.16,8.19-1.54,8.58-.58.71-.74,1.09-.48,1.16.06.06.19.03.39-.1.19-.13.3-.03.34.29.03.32-.02.96-.14,1.93-.32,2.7-.58,4.26-.77,4.68-.19.42-.74.63-1.64.63s-1.46-.16-1.69-.48c-.23-.32-.43-1.41-.63-3.28-.13-1.22-.06-1.9.19-2.02.26-.19.16-.48-.29-.87-.39-.45-.58-1.28-.58-2.51s.19-2.03.58-2.41c.26-.32.32-.45.19-.39-.06,0-.16.02-.29.05-.13.03-.24-.05-.34-.24-.1-.19-.21-.54-.34-1.06-.13-.51-.24-1.21-.34-2.07-.1-.87-.24-2.01-.43-3.42-.52-4.69-1.14-9.82-1.88-15.38-.74-5.56-1.17-8.37-1.3-8.44-.06-.06-.1.84-.1,2.7s-.02,4.45-.05,7.76c-.03,3.31-.05,6.86-.05,10.65v21.4h-9.45l-.1-1.83c-.06-7.91-.03-18.81.1-32.73.13-13.91.29-20.9.48-20.97.32-.19.32-.39,0-.58-.26-.13-.4-1-.43-2.6-.03-1.61.05-2.6.24-2.99Z"/>
      <path class="cls-2" d="M140.41,138.98c1.8-.06,3.34-.03,4.63.1l1.54.1-.1,30.95-.1,30.85-4.82.1-4.82.19v-1.64c-.06-4.88-.05-16.12.05-33.69.1-17.58.21-26.4.34-26.46.13-.19,1.22-.35,3.28-.48Z"/>
      <path class="cls-2" d="M157.57,140.13c1.28-.64,2.86-.93,4.72-.87,2.18.07,3.84.32,4.96.77,1.12.45,2.27,1.29,3.42,2.51.9,1.03,1.61,2.11,2.12,3.23.51,1.12.88,2.47,1.11,4.05.22,1.58.34,3.55.34,5.93v4.72h-7.91l-.48-5.3c-.39-4.76-1.09-7.33-2.12-7.71-.45-.19-.96-.16-1.54.1-.58.26-1.06.67-1.45,1.25-.32.52-.52,1.75-.58,3.71-.06,1.96-.1,6.96-.1,14.99.06,9.32.19,15.54.39,18.66.19,3.12.61,5,1.25,5.64.32.32.67.55,1.06.67.39.13.79.13,1.21,0,.42-.13.79-.39,1.11-.77.19-.19.34-.42.43-.67.1-.26.19-.63.29-1.11.1-.48.16-1.09.19-1.83.03-.74.08-1.72.14-2.94l.19-5.59,3.95-.1c2.51-.13,3.82-.03,3.95.29.06.13.1.29.1.48,0,.45.06,1.74.19,3.86.13,2.64-.07,5.05-.58,7.23-.51,2.19-1.3,4.05-2.36,5.59-1.06,1.54-2.4,2.67-4,3.37-1.87.9-3.97,1.14-6.32.72-2.35-.42-4.29-1.37-5.83-2.84-1.29-1.28-2.6-3.5-3.95-6.65-.51-1.29-.84-8.34-.96-21.16-.13-12.82.06-20.16.58-22.03.19-.77.39-1.29.58-1.54.19-.26.42-.32.67-.19.26.06.39.08.39.05,0-.03-.1-.18-.29-.43-.32-.45.13-1.41,1.35-2.89,1.22-1.48,2.47-2.54,3.76-3.18ZM159.89,144.08c0,.19-.06.32-.19.39-.26-.19-.39-.45-.39-.77,0-.58.16-.58.48,0l.1.39ZM163.93,197.11c.32-.39.32-.67,0-.87-.32-.19-.39-.16-.19.1.19.32.1.55-.29.67-.32.13-.42.29-.29.48.19.26.45.13.77-.39ZM164.66,140.33c.42,0,.63.14.63.43s-.23.37-.67.24c-.39-.26-.58-.42-.58-.48,0-.13.21-.19.63-.19ZM167.89,141.77c0,.06-.05.1-.14.1h-.34c-.13,0-.26-.03-.39-.1-.58-.13-.87-.35-.87-.67,0-.26.29-.22.87.1.58.32.87.51.87.58ZM168.95,194.22c.13-.13-.03-.39-.48-.77-.39-.39-.58-.42-.58-.1,0,.26.14.5.43.72.29.23.5.27.63.14Z"/>
      <path class="cls-2" d="M185.05,138.88c.77-.39,1.81-.64,3.13-.77,1.32-.13,2.62-.13,3.9,0,1.29.13,2.31.38,3.08.77,2.76,1.42,4.85,3.7,6.27,6.84,1.41,3.15,2.02,6.85,1.83,11.09l-.19,2.99h-8.19v-2.6c0-1.22-.16-2.51-.48-3.86-.32-1.35-.74-2.59-1.25-3.71-.51-1.12-1.03-1.91-1.54-2.36-.84-.71-1.5-1.04-1.98-1.01-.48.03-1.11.43-1.88,1.21-1.29,1.35-1.53,3.28-.72,5.79.8,2.51,2.94,6.33,6.41,11.47,2.89,4.31,4.98,7.68,6.27,10.12,1.29,2.44,2.15,4.66,2.6,6.65.45,1.99.61,4.37.48,7.13-.06,2.7-.35,4.74-.87,6.12-.52,1.38-1.51,2.75-2.99,4.1-1.16,1.16-2.36,1.94-3.62,2.36-1.25.42-2.81.53-4.68.34-3.41-.32-6.14-1.77-8.19-4.34-1.29-1.54-2.15-3.08-2.6-4.63-.45-1.54-.67-3.92-.67-7.13,0-3.73.16-5.69.48-5.88.39-.19,1.7-.19,3.95,0l3.57.29.1,3.38c.13,2.19.45,4.13.96,5.83.51,1.7,1.12,2.81,1.83,3.33,1.54,1.16,2.67.82,3.37-1.01.71-1.83.58-4.13-.39-6.89-.39-1.16-.85-2.28-1.4-3.37-.55-1.09-1.29-2.39-2.22-3.9-.93-1.51-2.27-3.58-4-6.22-2.64-3.98-4.47-6.97-5.5-8.97-1.03-1.99-1.7-3.79-2.02-5.4-.26-1.54-.39-3.15-.39-4.82s.13-2.6.39-2.8c.32-.19.42-.48.29-.87-.19-.45.11-1.43.92-2.94.8-1.51,1.65-2.75,2.55-3.71,1.03-1.22,2.15-2.09,3.38-2.6ZM182.83,190.94c.45.07.74.1.87.1.45,0,.68.13.68.39,0,.32-.26.51-.77.58-.52.07-1.09-.06-1.74-.39-.9-.45-1.35-.83-1.35-1.16,0-.19.32-.16.96.1.51.19.96.32,1.35.39Z"/>
    </g>
  </g>
</svg>